# xmcd
#
# Track frame offsets:
#	150
#	18109
#	35120
#	56938
#	69495
#	87195
#	105859
#	123426
#
# Disc length: 1856 seconds
#
# Revision: 3
# Processed by: cddbd v1.5.2PL0 Copyright (c) Steve Scherf et al.
# Submitted via: EasyCDDAExtractor 15.3.0.1
#
DISCID=62073e08
DTITLE=Toni Braxton - Sex and Cigarettes
DYEAR=2018
DGENRE=R&B
TTITLE0=Deadwood
TTITLE1=Sex and Cigarettes
TTITLE2=Long As I Live
TTITLE3=FOH
TTITLE4=Sorry
TTITLE5=My Heart (Featuring Colbie Caillat)
TTITLE6=Coping
TTITLE7=Missin'
EXTD=Release-Date: 06.04.2018\n\nMARO\n
EXTT0=
EXTT1=
EXTT2=
EXTT3=
EXTT4=
EXTT5=
EXTT6=
EXTT7=
PLAYORDER=
